<?xml version="1.0" encoding="UTF-8"?>
<svg xmlns="http://www.w3.org/2000/svg" viewBox="0 0 1015.52 484">
  <defs>
    <style>
      .cls-1 {
        stroke-width: 2.83px;
      }

      .cls-1, .cls-2 {
        fill: #414042;
        stroke: #231f20;
      }

      .cls-1, .cls-2, .cls-3 {
        stroke-miterlimit: 10;
      }

      .cls-2, .cls-3 {
        stroke-width: 2.83px;
      }

      .cls-3 {
        fill: #b6b4b3;
        stroke: #808285;
      }
    </style>
  </defs>
  <g id="Layer_1" data-name="Layer 1">
    <path class="cls-1" d="M777.2,258.13c-9.86,0-17.48-2.93-22.89-8.8-5.4-5.86-8.11-13.46-8.11-22.78,0-8.72,2.47-18.34,7.39-28.87,4.92-10.52,12.79-21.2,23.6-32.03,11.12-11.43,24.95-20.67,41.48-27.74,16.52-7.06,32.26-10.6,47.2-10.6,12.08,0,22.41,2.48,30.99,7.44s14.3,11.21,17.16,18.72c3.49,0,7.87.9,13.11,2.71,5.24,1.8,7.87,5.12,7.87,9.92,0,3.31-1.75,7.07-5.24,11.28-2.23,3.01-6.12,7.52-11.68,13.53-5.57,6.02-10.73,12.48-15.5,19.4-3.81,5.41-6.84,10.45-9.06,15.11-2.23,4.67-3.34,8.65-3.34,11.95,0,4.51,2.38,6.77,7.15,6.77,10.96,0,24.32-8.57,24.32-8.57,5.55-2.62,12.66-6.3,20.61-11.25,3.24-2.02,16.74-10.56,33.24-25.68,9.02-8.26,13.52-12.4,17.06-17.21,4.16-5.67,15.81-21.56,14.72-43.57-.83-16.85-8.7-28.84-12.43-34.3-2.03-2.97-5.63-7.81-15.32-16.6-8.43-7.64-21.02-17.88-38.3-28.09,0,0,0,0,0,0-77.27-44.8-206.74-47.55-206.64-50.72.23-6.97,67.14-5.64,128,9.19,0,0,82.75,20.17,125.62,64.68,3.76,3.9,15.63,16.56,22.13,35.73,3.9,11.48,3.84,19.35,3.69,22.63-.41,9.04-2.98,15.74-5.08,21.21-3.82,9.94-8.51,16.72-11.62,21.15-5.74,8.17-11.05,13.47-15.62,17.98-8.7,8.6-16.16,14.12-27.26,22.32-3.52,2.6-8.75,6.35-15.87,11.18-10.65,7.22-21.06,13.08-31.23,17.59-5.09,2.11-9.77,3.69-14.06,4.74-4.29,1.06-8.19,1.58-11.68,1.58-8.58,0-15.1-2.33-19.55-6.99-4.45-4.66-6.67-10.75-6.67-18.27,0-3,.48-6.16,1.43-9.47.95-3.31,2.06-6.61,3.34-9.93l3.34-7.67c-8.27,9.63-16.53,17.67-24.79,24.14-8.27,6.47-16.53,12.11-24.79,16.92-7,3.91-13.59,6.77-19.79,8.57s-11.85,2.71-16.93,2.71ZM791.98,246.4c5.72,0,13.98-3.23,24.79-9.7,10.8-6.46,23.36-16.47,37.67-30,1.91-1.8,5.48-5.03,10.73-9.7,5.24-4.66,10.88-9.92,16.93-15.79,6.03-5.86,11.2-11.73,15.49-17.59,4.29-5.86,6.44-10.75,6.44-14.66,0-5.71-5.24-8.57-15.73-8.57-9.22,0-20.26,3.38-33.14,10.15-12.87,6.77-25.2,16.77-36.95,30-12.08,13.53-20.9,25.19-26.46,34.96-5.57,9.78-8.34,17.22-8.34,22.33,0,5.72,2.86,8.57,8.58,8.57Z"/>
    <path class="cls-1" d="M298.7,269.9c-9.31,0-16.51-2.41-21.61-7.22s-7.65-11.05-7.65-18.7c0-7.16,2.33-15.06,6.98-23.7,4.65-8.64,12.08-17.4,22.28-26.29,10.5-9.38,23.56-16.97,39.17-22.77,15.6-5.8,30.46-8.7,44.57-8.7,11.4,0,21.16,2.04,29.26,6.11,8.1,4.07,13.51,9.2,16.21,15.37,3.3,0,7.43.74,12.38,2.22,4.95,1.48,7.43,4.2,7.43,8.15,0,2.72-1.65,5.8-4.95,9.26-2.1,2.47-5.78,6.17-11.03,11.11-5.25,4.94-10.13,10.25-14.63,15.92-3.6,4.44-6.46,8.58-8.55,12.41-2.1,3.83-3.15,7.1-3.15,9.81,0,3.7,2.25,5.55,6.75,5.55,5.1,0,12.75-2.34,22.96-7.04,11.1-5.18,21.76-11.11,31.96-17.77,10.2-6.67,18.15-11.97,23.86-15.92,1.5-.98,2.55-1.48,3.15-1.48,1.2,0,1.8.62,1.8,1.85,0,1.48-.75,2.84-2.25,4.07-2.7,1.98-7.96,5.68-15.76,11.11-7.81,5.43-16.73,11.11-26.79,17.03-10.06,5.92-19.89,10.74-29.49,14.44-4.8,1.73-9.23,3.03-13.28,3.89-4.05.87-7.73,1.3-11.03,1.3-8.1,0-14.26-1.91-18.46-5.74-4.21-3.82-6.3-8.82-6.3-15,0-2.46.45-5.06,1.35-7.78.9-2.71,1.95-5.43,3.15-8.15l3.15-6.29c-7.81,7.9-15.61,14.51-23.41,19.81-7.81,5.31-15.61,9.94-23.41,13.89-6.6,3.21-12.83,5.55-18.68,7.04-5.85,1.48-11.18,2.22-15.98,2.22ZM312.65,260.28c5.4,0,13.2-2.65,23.41-7.96,10.2-5.31,22.06-13.52,35.56-24.63,1.8-1.48,5.18-4.13,10.13-7.96,4.95-3.82,10.28-8.15,15.98-12.96,5.7-4.81,10.58-9.63,14.63-14.44,4.05-4.81,6.08-8.82,6.08-12.04,0-4.69-4.95-7.04-14.86-7.04-8.71,0-19.13,2.78-31.29,8.33s-23.79,13.77-34.89,24.63c-11.41,11.11-19.74,20.68-24.98,28.7-5.25,8.03-7.88,14.14-7.88,18.33,0,4.69,2.7,7.04,8.1,7.04Z"/>
    <path class="cls-2" d="M279.8,109.22c42.44,1.36,110.69-14.55,121.15-36.38,3.97-8.28,2.23-19.3-10.4-25.35C301.31,4.73,75.61,27.13,44.59,91.89c-4.51,9.41-.51,21.98,13.35,28.61,46.87,22.45,118.3,18.72,162.32,39.81,21.19,10.15,32.68,37.41,24.21,55.11,9.28,2.59,17.79,5.75,24.72,9.07,5.71,2.73,7.21,9.01,6.49,10.51-.54,1.13-1.54,1.12-3.17.33-11-5.27-21.96-9.6-33.1-13.54-32.84,31.94-170.22,49.91-211.38,30.19-12.63-6.05-25.55-21.96-18.52-36.65,13.53-28.24,126.1-24.75,204.32-8.11,5.15-4.48,8.9-9.16,11.42-14.43,4.69-9.79,3.49-21.93-12.81-29.74-35.05-16.79-127.44-18.47-166.97-37.41-18.75-8.98-33.4-31.74-25.1-49.06C54.63,5.04,291-18.73,385.95,26.77c24.04,11.52,28.11,33.37,21.43,47.3-14.25,29.74-118.15,48.93-125.48,45.42-2.45-1.17-5.94-7.47-5.04-9.36.36-.75,1.54-1.12,2.94-.91ZM208.48,212.07c-83.6-21.08-169.2-13.94-185.07,19.19-2.52,5.27-.57,12.69,8.4,16.98,30.16,14.45,133.15-2.86,176.67-36.17Z"/>
    <path class="cls-2" d="M574.8,81.4c-.42,1.76-2.01,3.62-5.73,7.95-17.52,18.91-64.85,58.62-98.07,50.65-19.5-4.68-40.28-23.09-34.02-49.17C454.65,17.16,605.97-3.94,695.16,17.46c55.97,13.43,89.5,42.35,82.74,70.55-6.09,25.38-42.79,43.04-82.85,52.44,12.34,7.44,23.46,16.81,31.62,27.35,12.64,3.03,21.86,5.99,30.46,9.92,2.72,1.4,5.68,6.58,5.17,8.7-.17.7-.62.97-1.34.8-2.17-.52-7.46-5.52-28.95-11.42,6.38,11.6,9.28,24.97,5.98,38.72-12.6,52.52-132.78,87.06-198.49,71.29-35.02-8.4-65.2-29.07-59.28-53.74,8.88-37.01,149.9-78.85,235.8-66.07-6.25-8.96-15.73-17.2-28.24-23.93-34.61,7.35-70.47,8.81-91.05,3.88-9.75-2.34-13.79-7.78-12.6-12.72,2.54-10.57,36-16.34,76.8-6.55,5.05,1.21,10.03,2.78,14.91,4.7,38.87-10.8,76.16-30.94,82.42-57.02,5.07-21.15-14.29-40.71-64.84-52.84-85.21-20.45-223.99,8.88-242.26,85.02-3.64,15.16,3.95,23.32,13.7,25.66,37.19,8.92,83.72-30.61,104.47-50.24,1.95-1.77,3.01-3.01,4.09-2.75,1.08.26,1.64,1.14,1.38,2.2ZM522.67,273.19c78.71,18.89,187.6-30.66,199.44-80.01,1.61-6.7.6-13.65-2.1-19.89-79.11-15.63-214.05,18.35-225.72,67-4.65,19.39,13.58,29.35,28.38,32.91ZM681.22,29.4c4.33,1.04,11.35,13.16,10.17,18.1-.42,1.76-1.93,3.27-6.05,4.51-43.56,16.02-131.64,79.13-141.53,120.38-.34,1.41-.87,2.03-1.95,1.77-1.08-.26-8.82-6.22-7.3-12.56,8.46-35.25,130.41-136.09,146.66-132.19ZM591.33,133.46c-.59,2.47,1.68,4.13,6.38,5.26,15.89,3.81,43.11,1.77,70.34-5.12-4.89-1.92-10.58-3.66-15.99-4.96-29.97-7.19-59.37-.83-60.73,4.81Z"/>
  </g>
  <g id="Layer_4" data-name="Layer 4">
    <g>
      <path class="cls-3" d="M13.31,472.86c-1.39.84-2.66.23-2.38-1.61.66-4.27,27.15-67.19,39.04-91.28-1.91-.2-3.82-.2-5.73-.39-2.2-.2-3.23-1.18-3.23-2.15,0-1.18,1.62-1.76,4.41-1.76h6.61c2.35-4.7,4.85-9.4,7.2-14.1,16.3-32.12,38.77-71.88,43.47-71.88.59,0,1.17.59,1.17,1.37s-.73,1.96-1.91,3.72c-14.54,22.72-28.2,47-38.77,68.94-1.91,3.92-3.67,8.03-5.58,11.75,42.73-2.15,83.56-24.48,83.56-64.83,0-22.91-17.04-36.43-42.15-36.43-35.98,0-74.16,28.59-74.16,61.3,0,7.05,2.5,12.93,7.64,15.67,4.41,2.35,8.22.59,8.22,3.33,0,1.76-2.2,2.74-4.7,2.74-7.93,0-15.57-8.42-15.57-21.15,0-38.58,40.53-66.2,78.71-66.2,25.7,0,47.29,15.47,47.29,42.3,0,42.7-47.14,67.18-90.9,67.76-7.34,16.26-13.66,30.75-18.5,42.11-2.94,6.46-21.29,49.3-23.74,50.78Z"/>
      <path class="cls-3" d="M139.5,418.22c-12.19,0-20.07-9.62-20.07-23.34,0-20.67,16.87-42.94,32.75-42.94,6.16,0,9.36,4.81,9.36,11.58,0,14.97-12.31,27.98-26.22,27.98-4.19,0-8.25-.71-11.33-3.39-.37,2.32-.62,4.63-.62,7.13,0,10.69,6.28,19.07,16.62,19.07,13.54,0,21.67-11.23,31.02-31.18.37-.89.86-1.25,1.23-1.25.86,0,1.23.89,1.23,1.78,0,1.25-1.85,4.99-4.31,9.98-5.17,10.33-14.16,24.59-29.67,24.59ZM124.6,385.26c3.08,1.96,6.03,2.67,9.48,2.67,12.43,0,24.01-11.4,24.01-24.77,0-5.17-2.34-7.84-6.4-7.84-9.97,0-23.14,13.19-27.08,29.94Z"/>
      <path class="cls-3" d="M188.99,415.73c-5.79,0-9.48-4.45-9.48-13.01,0-12.65,8.62-23.34,8.62-32.97,0-4.45-2.58-5.52-4.8-7.66-10.34,27.62-22.16,46.86-25.24,46.86-.86,0-1.35-.53-1.35-1.43,0-.53.25-1.25.86-1.96,7.63-8.73,16.25-27.8,23.64-46.15-.74-1.6-1.35-3.74-1.35-6.95,0-5.35,2.34-9.09,4.19-9.09,1.48,0,2.34,1.6,2.34,4.1,0,3.39-.86,6.95-2.22,11.05,4.06,3.21,7.14,5.17,7.14,11.94,0,10.69-8.62,19.78-8.62,32.79,0,5.7,3.08,8.38,6.52,8.38,7.02,0,15.63-10.51,24.01-28.51.37-.89.86-1.25,1.23-1.25.74,0,1.23.89,1.23,1.96,0,2.67-13.42,31.9-26.71,31.9Z"/>
      <path class="cls-3" d="M218.04,417.86c-7.51,0-10.83-3.21-10.83-7.13,0-2.14,1.72-4.1,3.08-4.1,3.08,0,3.32,3.39,6.77,7.13,4.8,0,10.46-6.59,10.46-18.71,0-9.44-2.95-17.28-4.31-27.09-9.73,24.41-20.07,40.98-22.9,40.98-.86,0-1.35-.53-1.35-1.43,0-.53.25-1.25.86-1.96,7.39-8.55,15.63-26.55,22.9-44.19v-1.78c0-7.48,2.46-14.08,5.54-14.08,1.48,0,2.09,1.07,2.09,2.85,0,3.74-1.72,8.55-5.17,15.68,1.97,14.26,5.91,22.27,5.91,31.9,0,7.66-2.95,13.9-6.28,17.82,14.4-2.49,21.42-15.5,28.56-30.65.37-.89.86-1.25,1.23-1.25.74,0,1.23.53,1.23,1.6,0,2.32-6.89,18-14.9,25.84-5.79,5.7-13.05,8.55-22.9,8.55Z"/>
      <path class="cls-3" d="M248.93,402.01c0-13.36,8.86-31.36,18.59-46.69.49-.71.98-.89,1.48-.89.86,0,1.72.71,1.72,2.14,0,.71-.25,1.6-.86,2.67-6.89,11.58-17.11,30.11-17.11,42.41,0,6.95,2.09,9.8,6.16,9.8,6.52,0,15.27-10.33,23.64-28.33.37-.89.86-1.25,1.23-1.25.74,0,1.23.89,1.23,1.96,0,2.67-13.42,31.9-26.71,31.9-5.79,0-9.36-3.92-9.36-13.72ZM291.78,309.7c1.35,0,1.97.71,1.97,2.49,0,3.56-4.55,10.33-7.88,10.33-.98,0-1.72-.89-1.72-2.32,0-3.92,4.31-10.51,7.63-10.51Z"/>
      <path class="cls-3" d="M310.61,398.8c-6.16,10.51-13.42,18.71-19.57,18.71-7.26,0-11.08-7.66-11.08-19.07,0-21.56,17.6-46.51,32.38-46.51,6.77,0,10.22,3.56,13.17,8.02,2.71-4.81,5.05-8.02,6.16-8.02.98,0,1.11.71,1.11,2.14,0,4.81-9.85,24.95-17.23,36.71-1.48,4.46-1.72,8.02-1.72,11.58,0,6.42,2.34,9.27,5.79,9.27,7.39,0,15.39-10.34,23.88-28.51.37-.89.86-1.25,1.23-1.25.74,0,1.23.89,1.23,1.96,0,2.67-13.42,31.9-26.71,31.9-4.68,0-8.74-4.45-8.74-14.08,0-.89.12-1.78.12-2.85ZM291.65,413.77c6.77,0,14.4-11.58,21.05-24.41,2.46-7.84,6.28-16.93,9.97-24.23-1.11-5.17-4.31-10.16-10.22-10.16-13.3,0-28.81,25.3-28.81,43.3,0,9.8,2.59,15.5,8,15.5Z"/>
      <path class="cls-3" d="M375.48,415.73c-5.79,0-10.09-4.81-10.09-14.43,0-14.08,9.73-32.61,14.77-42.77-6.4,4.99-12.68,15.68-18.47,25.66-8.99,15.5-16.62,31.54-22.28,31.54-2.71,0-4.43-2.49-4.43-6.77,0-11.23,8.99-30.29,18.96-47.04.86-1.43,1.72-1.96,2.46-1.96s1.23.71,1.23,1.78c0,.89-.25,1.96-1.11,3.39-10.83,17.82-17.97,35.28-17.97,44.01,0,1.78.49,2.67,1.6,2.67,3.08,0,11.08-15.15,19.57-29.94,8.25-14.26,17.11-27.8,22.04-27.8,1.6,0,2.83,1.43,2.83,3.03,0,.71-.25,1.6-.62,2.32-4.31,8.38-14.77,27.8-14.77,41.88,0,6.77,2.83,10.69,6.52,10.69,7.14,0,15.63-10.87,24.01-28.87.37-.89.86-1.25,1.23-1.25.74,0,1.23.89,1.23,1.96,0,2.67-13.42,31.9-26.71,31.9Z"/>
      <path class="cls-3" d="M480.97,351.93c-3.32,0-5.79-.71-5.54-2.49.12-1.6,3.57-1.6,3.69-1.6,22.65,0,50.35-18,50.35-45.62,0-10.16-6.28-18.53-17.48-18.53-30.16,0-74.48,50.78-74.48,102.64,0,26.55,12.8,40.45,30.65,40.45,16.13,0,32.62-15.68,45.55-42.94.62-1.25,1.23-1.96,1.72-1.96s.98.53.98,1.78c0,1.43-1.97,6.59-5.42,12.83-7.88,14.08-23.76,34.39-43.7,34.39s-34.47-14.61-34.47-45.08c0-55.06,47.52-105.49,79.16-105.49,13.91,0,20.68,10.16,20.68,21.92,0,31.72-31.64,49.72-51.7,49.72Z"/>
      <path class="cls-3" d="M542.27,398.8c-6.16,10.51-13.42,18.71-19.57,18.71-7.26,0-11.08-7.66-11.08-19.07,0-21.56,17.6-46.51,32.38-46.51,6.77,0,10.22,3.56,13.17,8.02,2.71-4.81,5.05-8.02,6.16-8.02.98,0,1.11.71,1.11,2.14,0,4.81-9.85,24.95-17.24,36.71-1.48,4.46-1.72,8.02-1.72,11.58,0,6.42,2.34,9.27,5.79,9.27,7.39,0,15.39-10.34,23.88-28.51.37-.89.86-1.25,1.23-1.25.74,0,1.23.89,1.23,1.96,0,2.67-13.42,31.9-26.71,31.9-4.68,0-8.74-4.45-8.74-14.08,0-.89.12-1.78.12-2.85ZM523.31,413.77c6.77,0,14.4-11.58,21.05-24.41,2.46-7.84,6.28-16.93,9.97-24.23-1.11-5.17-4.31-10.16-10.22-10.16-13.3,0-28.81,25.3-28.81,43.3,0,9.8,2.59,15.5,8,15.5Z"/>
      <path class="cls-3" d="M580.55,415.73c-5.17,0-8.86-4.45-8.86-14.08,0-11.4,4.31-24.41,17.97-53.1,13.79-28.51,25.36-50.25,28.44-50.25.25,0,.49.18.49.71,0,1.78-1.97,7.13-6.65,17.46-10.83,24.41-24.38,51.32-33.24,67-3.69,10.16-3.69,14.26-3.69,17.82,0,7.66,2.58,10.16,6.16,10.16,7.02-.18,15.26-10.33,23.64-28.33.37-.89.86-1.25,1.23-1.25.74,0,1.23.89,1.23,1.96,0,2.67-13.42,31.9-26.71,31.9Z"/>
      <path class="cls-3" d="M610.22,415.73c-5.17,0-8.86-4.45-8.86-14.08,0-11.4,4.31-24.41,17.97-53.1,13.79-28.51,25.36-50.25,28.44-50.25.25,0,.49.18.49.71,0,1.78-1.97,7.13-6.65,17.46-10.83,24.41-24.38,51.32-33.24,67-3.69,10.16-3.69,14.26-3.69,17.82,0,7.66,2.58,10.16,6.16,10.16,7.02-.18,15.26-10.33,23.64-28.33.37-.89.86-1.25,1.23-1.25.74,0,1.23.89,1.23,1.96,0,2.67-13.42,31.9-26.71,31.9Z"/>
      <path class="cls-3" d="M630.04,402.01c0-13.36,8.86-31.36,18.59-46.69.49-.71.98-.89,1.48-.89.86,0,1.72.71,1.72,2.14,0,.71-.25,1.6-.86,2.67-6.89,11.58-17.11,30.11-17.11,42.41,0,6.95,2.09,9.8,6.16,9.8,6.53,0,15.27-10.33,23.64-28.33.37-.89.86-1.25,1.23-1.25.74,0,1.23.89,1.23,1.96,0,2.67-13.42,31.9-26.71,31.9-5.79,0-9.36-3.92-9.36-13.72ZM672.88,309.7c1.35,0,1.97.71,1.97,2.49,0,3.56-4.55,10.33-7.88,10.33-.98,0-1.72-.89-1.72-2.32,0-3.92,4.31-10.51,7.63-10.51Z"/>
      <path class="cls-3" d="M661.31,476.85c-8.49,0-16-7.31-16-18,0-19.78,18.1-20.67,38.41-32.97,1.6-7.31,3.45-15.32,5.79-23.52-5.66,8.73-11.94,15.15-17.36,15.15-7.26,0-11.08-7.66-11.08-19.07,0-21.56,17.6-46.51,32.38-46.51,7.02,0,9.97,3.56,12.8,8.02,2.59-4.45,5.05-8.02,6.53-8.02.98,0,1.11.71,1.11,2.14,0,4.81-10.34,27.44-18.71,40.27-3.82,11.05-5.79,20.31-7.51,29.05,2.34-1.43,4.68-3.21,7.02-5.17,7.76-6.59,17.73-17.11,26.1-35.1.37-.89.86-1.25,1.48-1.25.49,0,.86.53.86,1.6,0,2.14-4.31,11.58-11.08,21.2-4.31,6.24-9.97,11.94-16.5,17.28-2.96,2.49-5.91,4.46-8.74,6.24-1.85,9.62-3.57,18.89-7.02,29.58-4.56,14.08-12.06,19.07-18.47,19.07ZM661.31,473.64c5.42,0,10.59-5.17,14.4-15.33,2.46-6.59,4.43-16.22,7.02-27.62-18.59,10.34-33.73,11.23-33.73,28.51,0,9.09,4.92,14.43,12.31,14.43ZM672.76,413.41c6.4,0,13.67-10.33,20.07-22.1,1.72-4.99,3.45-10.16,5.54-14.97.99-2.49,2.96-6.95,5.17-11.23-1.11-4.99-4.06-10.16-9.97-10.16-13.3,0-28.81,25.3-28.81,43.3,0,9.62,2.58,15.15,8,15.15Z"/>
      <path class="cls-3" d="M738.62,415.73c-5.79,0-9.48-4.45-9.48-13.01,0-12.65,8.62-23.34,8.62-32.97,0-4.45-2.58-5.52-4.8-7.66-10.34,27.62-22.16,46.86-25.24,46.86-.86,0-1.35-.53-1.35-1.43,0-.53.25-1.25.86-1.96,7.63-8.73,16.25-27.8,23.64-46.15-.74-1.6-1.35-3.74-1.35-6.95,0-5.35,2.34-9.09,4.19-9.09,1.48,0,2.34,1.6,2.34,4.1,0,3.39-.86,6.95-2.22,11.05,4.06,3.21,7.14,5.17,7.14,11.94,0,10.69-8.62,19.78-8.62,32.79,0,5.7,3.08,8.38,6.52,8.38,7.02,0,15.63-10.51,24.01-28.51.37-.89.86-1.25,1.23-1.25.74,0,1.23.89,1.23,1.96,0,2.67-13.42,31.9-26.71,31.9Z"/>
      <path class="cls-3" d="M791.06,398.8c-6.16,10.51-13.42,18.71-19.57,18.71-7.26,0-11.08-7.66-11.08-19.07,0-21.56,17.6-46.51,32.38-46.51,6.77,0,10.22,3.56,13.17,8.02,2.71-4.81,5.05-8.02,6.16-8.02.98,0,1.11.71,1.11,2.14,0,4.81-9.85,24.95-17.24,36.71-1.48,4.46-1.72,8.02-1.72,11.58,0,6.42,2.34,9.27,5.79,9.27,7.39,0,15.39-10.34,23.88-28.51.37-.89.86-1.25,1.23-1.25.74,0,1.23.89,1.23,1.96,0,2.67-13.42,31.9-26.71,31.9-4.68,0-8.74-4.45-8.74-14.08,0-.89.12-1.78.12-2.85ZM772.1,413.77c6.77,0,14.4-11.58,21.05-24.41,2.46-7.84,6.28-16.93,9.97-24.23-1.11-5.17-4.31-10.16-10.22-10.16-13.3,0-28.81,25.3-28.81,43.3,0,9.8,2.58,15.5,8,15.5Z"/>
      <path class="cls-3" d="M797.08,469.54c-.74,0-1.35-.71-1.35-2.5,0-7.13,3.57-23.7,16.62-51.14,2.22-6.59,6.65-20.14,10.59-30.11,6.16-16.04,21.54-49.72,25.36-49.72,1.11,0,1.48,1.25,1.48,2.85,0,3.74-6.89,20.14-17.85,34.39-3.94,8.55-7.26,16.39-10.46,24.23,10.83-21.03,26.84-45.62,35.46-45.62,6.16,0,8.12,7.13,8.12,15.68,0,21.21-10.22,39.92-23.39,46.69,1.97.36,3.82.18,5.66,0,17.11-1.25,24.74-14.26,32.75-31.18.37-.89.86-1.25,1.23-1.25.74,0,1.23.53,1.23,1.6,0,2.32-6.89,18-14.9,25.84-5.79,5.7-12.68,9.09-20.93,9.09-13.67,0-21.3-4.99-21.3-12.12,0-2.14.74-3.39,2.22-3.39,2.83,0,4.55,4.63,10.22,9.62,11.82-4.1,23.51-22.99,23.51-45.97,0-6.42-2.09-10.34-4.92-10.34-7.76,0-28.07,32.07-41,58.8-4.55,14.43-7.26,27.62-11.08,40.09-2.59,8.38-5.05,14.43-7.26,14.43Z"/>
      <path class="cls-3" d="M913.54,415.73c-5.79,0-10.1-4.81-10.1-14.43,0-14.08,9.73-32.61,14.77-42.77-6.4,4.99-12.68,15.86-18.47,25.66-8.86,15.15-15.14,31.54-21.3,31.54-2.71,0-4.43-1.96-4.43-7.48,0-9.09,7.02-31.36,20.68-59.87,13.79-28.51,25.73-50.07,28.81-50.07.25,0,.37.18.37.71,0,1.6-2.09,6.77-6.89,17.46-10.34,23.17-23.14,49-32.01,64.86-6.52,14.97-7.63,22.45-7.63,27.09,0,2.67.74,3.39,1.85,3.39,3.57,0,10.22-15.5,18.59-29.94,8.25-14.26,17.11-27.8,22.04-27.8,1.6,0,2.83,1.43,2.83,3.03,0,.71-.25,1.6-.62,2.32-4.31,8.38-14.77,27.8-14.77,41.88,0,6.77,2.83,10.69,6.53,10.69,7.14,0,15.63-10.87,24.01-28.87.37-.89.86-1.25,1.23-1.25.74,0,1.23.89,1.23,1.96,0,2.67-13.42,31.9-26.71,31.9Z"/>
      <path class="cls-3" d="M929.98,477.16c-8.49,0-16-7.31-16-18,0-19.5,17.47-20.64,37.31-32.28.54-.32.93-.85,1.06-1.47.76-3.63,1.62-7.4,2.58-11.26.52-2.12-2.02-3.68-3.64-2.23-3.38,3.03-6.51,3.93-9.11,3.93-5.17,0-9.6-4.81-9.6-14.26,0-12.65,7.39-29.22,13.17-38.67,2.46-4.1,3.57-5.17,5.05-5.17.99,0,1.48.53,1.48,1.6,0,1.43-1.11,3.56-2.34,5.7-8.74,14.61-14.28,26.91-14.28,36.71,0,6.95,2.59,10.51,6.89,10.51,5.86,0,12.09-7.19,17.12-16.18.08-.14.14-.29.19-.44,6.42-21.14,18.41-43.43,21.47-43.43.49,0,.62.36.62,1.07,0,1.6-1.35,5.52-3.69,10.51-3.79,8.14-10.49,22.25-15.77,32.4-.07.14-.13.29-.18.45-2.09,7.6-3.59,14.77-4.97,21.6-.41,2.04,1.92,3.48,3.57,2.22.5-.38.94-.66,1.49-1.11.36-.29.45-.41.95-.84.67-.58,1.18-.99,1.23-1.03.3-.25,18.25-15.03,28.24-31.06,12.97-20.81,12.88-44.27,12.77-51.57-.12-7.87-.82-32.37-16.85-55.15,0,0-11.31-16.08-31.18-28.05-1.55-.94-2.47-1.4-2.52-1.31-.24.37,26.59,11.8,41.87,31.4,18.22,23.38,16.28,53.58,14.96,64.09-4.33,34.42-27.23,57.2-36.37,66.3-1.99,1.98-3.71,3.56-4.89,4.62h0c-2.29,2.19-4.33,3.83-6.4,5.5-2.81,2.27-5.51,4.1-8.2,5.89-.5.33-.85.86-.96,1.45-1.8,9.48-3.73,18.81-6.6,28.48-4.19,14.25-12.06,19.07-18.47,19.07ZM931.12,473.13c5.42,0,10.59-5.17,14.4-15.33,2.58-6.95,4.43-16.39,6.77-27.62-18.47,10.34-33.49,11.23-33.49,28.51,0,9.09,4.92,14.43,12.31,14.43Z"/>
    </g>
  </g>
</svg>